<svg width="71" height="28" viewBox="0 0 71 28" fill="none" xmlns="http://www.w3.org/2000/svg">
<path d="M0.932153 3.92874C-0.171797 3.13902 -0.315791 1.73585 0.610532 0.794695C1.53686 -0.146463 3.18272 -0.269224 4.28667 0.520502L37.208 24.0713C38.312 24.861 38.4559 26.2641 37.5296 27.2053C36.6033 28.1465 34.9574 28.2692 33.8535 27.4795L0.932153 3.92874Z" fill="#E20505"/>
<path d="M70.0678 3.92874C71.1718 3.13902 71.3158 1.73585 70.3895 0.794695C69.4631 -0.146463 67.8173 -0.269224 66.7133 0.520502L33.792 24.0713C32.688 24.861 32.5441 26.2641 33.4704 27.2053C34.3967 28.1465 36.0426 28.2692 37.1465 27.4795L70.0678 3.92874Z" fill="#E20505"/>
</svg>
